<svg width="1125" height="1390" viewBox="0 0 1125 1390" fill="none" xmlns="http://www.w3.org/2000/svg">
<rect x="2.5" y="2.5" width="1120" height="1385" fill="white" stroke="#DDDFE2" stroke-width="5"/>
<text fill="#B9B9B9" xml:space="preserve" style="white-space: pre" font-family="Inter" font-size="48" font-weight="600" letter-spacing="0em"><tspan x="148" y="732.455">&#x3053;&#x306e;&#x5834;&#x6240;&#x3067;&#x306e;&#x81ea;&#x5206;&#x306e;&#x4f53;&#x9a13;&#x3084;&#x611f;&#x60f3;&#x3092;&#x5171;&#x6709;&#10;</tspan><tspan x="148" y="804.455">&#x3057;&#x307e;&#x3057;&#x3087;&#x3046;</tspan></text>
<path d="M94.5 98H54M54 98L73.5 78M54 98L73.5 119" stroke="#666666" stroke-width="7"/>
<text fill="#4C4C4C" xml:space="preserve" style="white-space: pre" font-family="Inter" font-size="60" font-weight="bold" letter-spacing="0em"><tspan x="472" y="125.318">&#x5e97;&#x8217;&#x540d;</tspan></text>
<circle cx="151.5" cy="289.5" r="73.5" fill="#D9D9D9"/>
<text fill="#3C4043" xml:space="preserve" style="white-space: pre" font-family="Inter" font-size="47" font-weight="600" letter-spacing="0em"><tspan x="261" y="277.591">&#x3042;&#x306a;&#x305f;&#x306e;&#x30e6;&#x30fc;&#x30b6;&#x30fc;&#x540d;</tspan></text>
<text fill="#70757A" xml:space="preserve" style="white-space: pre" font-family="Inter" font-size="42" font-weight="600" letter-spacing="0em"><tspan x="261" y="361.773">&#x4e00;&#x822c;&#x516c;&#x958b;&#x3067;&#x6295;&#x7a3f;&#x3057;&#x307e;&#x3059;</tspan></text>
<circle cx="733" cy="350" r="26.5" stroke="#70757A" stroke-width="5"/>
<text fill="#70757A" xml:space="preserve" style="white-space: pre" font-family="Inter" font-size="42" font-weight="600" letter-spacing="0em"><tspan x="727" y="364.773">i</tspan></text>
<rect x="98.5" y="635.5" width="927" height="306" rx="10.5" stroke="#80868B" stroke-width="3"/>
<path d="M266.5 491.5H238L261.5 508.5L253 536L275.5 518.5L299 536L290.5 508.5L313.5 491.5H285.5L275.5 463L266.5 491.5Z" stroke="#B9B9B9" stroke-width="6" stroke-linejoin="round"/>
<path d="M410.5 491.5H382L405.5 508.5L397 536L419.5 518.5L443 536L434.5 508.5L457.5 491.5H429.5L419.5 463L410.5 491.5Z" stroke="#B9B9B9" stroke-width="6" stroke-linejoin="round"/>
<path d="M554.5 491.5H526L549.5 508.5L541 536L563.5 518.5L587 536L578.5 508.5L601.5 491.5H573.5L563.5 463L554.5 491.5Z" stroke="#B9B9B9" stroke-width="6" stroke-linejoin="round"/>
<path d="M698.5 491.5H670L693.5 508.5L685 536L707.5 518.5L731 536L722.5 508.5L745.5 491.5H717.5L707.5 463L698.5 491.5Z" stroke="#B9B9B9" stroke-width="6" stroke-linejoin="round"/>
<path d="M842.5 491.5H814L837.5 508.5L829 536L851.5 518.5L875 536L866.5 508.5L889.5 491.5H861.5L851.5 463L842.5 491.5Z" stroke="#B9B9B9" stroke-width="6" stroke-linejoin="round"/>
<rect x="193.5" y="1045.5" width="740" height="104" rx="49.5" stroke="#DDDFE2" stroke-width="3"/>
<path d="M453 1079.5H477" stroke="#1A73E8" stroke-width="6" stroke-linejoin="round"/>
<path d="M465 1091.5V1067.5" stroke="#1A73E8" stroke-width="6" stroke-linejoin="round"/>
<path d="M443.568 1078.8C445.116 1078.21 445.893 1076.48 445.303 1074.93C444.714 1073.38 442.98 1072.61 441.432 1073.2L443.568 1078.8ZM417.5 1121H414.5C414.5 1122.66 415.843 1124 417.5 1124V1121ZM470.5 1121V1124C472.157 1124 473.5 1122.66 473.5 1121H470.5ZM417.5 1080V1077C415.843 1077 414.5 1078.34 414.5 1080H417.5ZM435.5 1073.5V1070.5C434.396 1070.5 433.382 1071.11 432.859 1072.08L435.5 1073.5ZM445 1073.5H448C448 1071.84 446.657 1070.5 445 1070.5V1073.5ZM445 1080V1083C446.657 1083 448 1081.66 448 1080H445ZM417.5 1124H470.5V1118H417.5V1124ZM473.5 1121V1099H467.5V1121H473.5ZM414.5 1080V1121H420.5V1080H414.5ZM432.859 1072.08L429.359 1078.58L434.641 1081.42L438.141 1074.92L432.859 1072.08ZM432 1077H417.5V1083H432V1077ZM445 1070.5H435.5V1076.5H445V1070.5ZM441.432 1073.2L430.932 1077.2L433.068 1082.8L443.568 1078.8L441.432 1073.2ZM432 1083H445V1077H432V1083ZM448 1080V1073.5H442V1080H448Z" fill="#1A73E8"/>
<circle cx="444.5" cy="1100.5" r="12.5" fill="#1A73E8"/>
<text fill="#1A73E8" xml:space="preserve" style="white-space: pre" font-family="Inter" font-size="43" font-weight="600" letter-spacing="0em"><tspan x="491" y="1113.64">&#x5199;&#x771f;&#x3092;&#x8ffd;&#x52a0;</tspan></text>
<rect x="100" y="1209" width="924" height="112" rx="50" fill="#1A73E8"/>
<text fill="white" xml:space="preserve" style="white-space: pre" font-family="Inter" font-size="40" font-weight="bold" letter-spacing="0em"><tspan x="522" y="1279.55">&#x6295;&#x7a3f;</tspan></text>
</svg>
