<svg xmlns="http://www.w3.org/2000/svg" width="1125" height="1390" fill="none"><path fill="#fff" stroke="#DDDFE2" stroke-width="5" d="M2.5 2.5h1120v1385H2.5z"/><path fill="#3C4043" d="M155.488 697.92c1.824.192 4.272.336 5.952.336h24.192c1.392 0 3.36-.096 4.176-.144-.048 1.152-.144 3.024-.144 4.464v24.864c0 1.68.144 4.176.24 5.664h-6.96c.048-1.44.096-3.168.096-4.944v-23.712h-21.6c-2.016 0-4.608.096-5.952.192v-6.72Zm-.576 26.064c1.632.144 3.792.288 5.952.288h25.968v6.336h-25.776c-1.872 0-4.56.096-6.144.288v-6.912Zm78.192-26.016c0 1.488 1.248 2.736 2.784 2.736 1.488 0 2.784-1.248 2.784-2.736 0-1.536-1.296-2.784-2.784-2.784a2.786 2.786 0 0 0-2.784 2.784Zm-2.976 0c0-3.168 2.592-5.76 5.76-5.76 3.168 0 5.76 2.592 5.76 5.76 0 3.12-2.592 5.712-5.76 5.712-3.168 0-5.76-2.592-5.76-5.712Zm-19.44-2.736c-.192 1.44-.336 3.6-.336 4.992v24.192c0 2.112.96 2.64 3.12 3.024 1.44.24 3.408.288 5.52.288 5.04 0 12.768-.576 16.752-1.632v7.008c-4.56.672-11.808.96-17.088.96-3.12 0-6.048-.192-8.112-.528-4.128-.768-6.576-3.024-6.576-7.2v-26.112c0-1.104-.144-3.552-.336-4.992h7.056Zm-3.168 14.736c6.192-1.344 14.4-3.936 19.44-6 1.68-.72 3.312-1.488 5.232-2.592l2.544 6.048c-1.824.768-3.984 1.68-5.568 2.304-5.664 2.16-15.072 4.992-21.6 6.528l-.048-6.288Zm40.848-.192c1.776.144 5.232.336 7.728.336h25.776c2.256 0 4.368-.24 5.664-.336v7.584c-1.152-.048-3.6-.288-5.616-.288h-25.824c-2.688 0-5.904.144-7.728.288v-7.584Zm67.92-11.808a96.9 96.9 0 0 0-1.488-4.416l6.48-.768c.72 3.696 1.872 7.488 3.024 10.56 1.488 4.032 3.744 8.16 5.328 10.368.816 1.2 1.68 2.208 2.544 3.216l-2.928 4.272c-2.688-.528-8.784-1.152-12.816-1.488l.48-5.088c2.352.24 5.52.48 7.008.624-1.728-2.832-3.84-6.864-5.328-10.848-1.056-2.64-1.728-4.848-2.304-6.432Zm-17.472 2.256c8.976 1.056 16.272 1.008 22.032.384 4.272-.528 8.496-1.344 12.288-2.496l.72 6c-3.168.912-7.296 1.632-11.136 2.064-6.384.768-13.968.96-23.808.144l-.096-6.096Zm9.648 16.32c-1.584 2.304-2.352 4.416-2.352 6.48 0 4.08 3.6 5.76 10.176 5.808 5.232 0 9.456-.528 12.816-1.2l-.336 6.096c-2.736.48-7.056 1.104-12.864 1.104-9.84 0-15.984-3.792-15.984-10.752 0-2.928.912-5.664 2.544-8.928l6 1.392Zm78.336 12.96c-2.256 2.064-5.136 3.6-9.072 3.6-3.6 0-6-2.592-6-7.248 0-5.232 1.728-12.24 1.728-16.656 0-2.352-1.2-3.504-3.264-3.504-4.464 0-11.616 7.056-15.456 11.952l-.048-7.392c2.928-3.072 10.944-10.272 17.28-10.272 5.184 0 7.536 3.072 7.536 7.104 0 4.944-1.584 12-1.584 16.992 0 1.248.672 2.112 1.872 2.112 1.776 0 4.032-1.248 6.192-3.408l.816 6.72Zm-33.168-22.848c-2.16.24-6.72.816-9.888 1.296l-.624-6.192a41.48 41.48 0 0 0 4.176-.048c3.024-.144 9.168-1.056 11.328-1.776l1.92 2.496c-.816 1.104-2.304 3.456-3.12 4.704l-2.784 9.024c-2.112 3.072-6.384 9.504-8.928 13.008l-3.744-5.28c3.024-3.744 8.784-11.328 11.184-15.12l.096-1.248.384-.864Zm-.576-9.264c0-1.344.048-2.784-.24-4.272l7.008.192c-.816 3.84-2.4 16.416-2.4 25.008 0 3.888 0 7.968.288 12.432.048.864.24 2.64.336 3.696h-6.576a50.93 50.93 0 0 0 .144-3.552c.048-4.656.096-7.872.24-13.872.144-4.272 1.2-17.712 1.2-19.632Zm57.648-3.696c-.336 1.344-.768 3.504-1.008 4.56-.672 3.264-1.872 9.12-3.168 14.016-1.728 6.72-4.944 16.512-7.584 22.224l-6.672-2.256c2.832-4.848 6.48-14.88 8.304-21.6 1.2-4.512 2.304-9.792 2.64-12.624.24-1.776.288-3.744.144-4.896l7.344.576Zm-12.24 7.2c5.856 0 12.624-.912 18.864-2.4v6c-5.952 1.392-13.488 2.208-18.912 2.208-2.352 0-4.128-.096-5.808-.192l-.192-6c2.496.288 4.08.384 6.048.384Zm15.072 7.344a92.492 92.492 0 0 1 9.264-.48c2.736 0 5.616.144 8.4.432l-.096 5.76c-2.448-.288-5.376-.624-8.256-.624-3.312 0-6.288.144-9.312.528v-5.616Zm2.592 12.048c-.336 1.392-.624 2.928-.624 3.984 0 2.112 1.392 3.696 6.576 3.696 3.216 0 6.528-.336 9.936-.96l-.24 6.096a68.354 68.354 0 0 1-9.744.672c-8.112 0-12.432-2.736-12.432-7.584 0-2.256.432-4.56.816-6.432l5.712.528Zm29.52-25.056c1.536.192 3.504.336 5.136.336h19.296c1.584 0 3.504-.144 5.136-.336v6.192c-1.632-.096-3.504-.192-5.136-.192h-19.296c-1.632 0-3.696.096-5.136.192v-6.192Zm-5.616 12.24c1.44.192 3.12.288 4.608.288h31.44c1.008 0 3.12-.048 4.416-.288v6.24a129.849 129.849 0 0 0-4.416-.096h-31.44c-1.392 0-3.264.048-4.608.144v-6.288Zm24.576 3.36c0 6.288-1.104 11.088-3.168 15.072-1.632 3.36-5.376 7.056-9.6 9.264l-5.664-4.08c3.408-1.344 6.816-4.08 8.688-6.912 2.4-3.648 3.072-8.16 3.072-13.296l6.672-.048Zm36.864-13.104a29.623 29.623 0 0 0-1.008-3.6l6.816-1.104c.096.912.288 2.544.48 3.696.48 3.168 5.232 27.456 6.24 32.352.336 1.392.768 3.12 1.2 4.704l-6.912 1.2c-.24-1.776-.336-3.408-.672-4.848-.72-4.32-5.376-28.512-6.144-32.4Zm-13.104 6.144c1.488-.096 2.928-.192 4.464-.384 4.08-.48 20.88-3.072 25.2-3.936a41.567 41.567 0 0 0 4.464-1.008l1.2 6.336c-1.056.048-3.024.336-4.464.528-5.088.816-21.6 3.456-25.2 4.08a62.03 62.03 0 0 0-4.368 1.008l-1.296-6.624Zm.048 14.064c1.248-.048 3.456-.288 4.944-.528 5.136-.72 22.656-3.552 28.176-4.608a67.695 67.695 0 0 0 4.944-1.104l1.248 6.336c-1.296.096-3.264.432-5.04.72-6.096.912-23.376 3.744-28.128 4.656-2.064.384-3.744.672-4.8.96l-1.344-6.432Zm82.115-18.432c-.384.528-1.248 1.968-1.68 2.976-1.968 4.56-5.52 11.088-9.648 15.888-5.376 6.192-12.624 12.144-20.064 15.648l-4.992-5.184c7.776-2.88 15.168-8.736 19.68-13.728 3.168-3.6 6.096-8.352 7.2-11.76h-16.32c-1.968 0-4.608.24-5.664.336v-6.864c1.296.192 4.272.336 5.664.336h16.944c2.112 0 3.984-.24 4.992-.576l3.888 2.928Zm-10.704 14.88c4.944 4.032 11.76 11.184 14.88 15.024l-5.472 4.752c-3.552-4.944-8.784-10.656-13.92-15.312l4.512-4.464Zm33.744 13.056v-27.6c0-1.728-.144-4.08-.48-5.808h7.488c-.192 1.728-.432 3.792-.432 5.808 0 5.28.048 24.048.048 27.6 0 1.344.192 4.704.432 6.672h-7.536c.336-1.872.48-4.8.48-6.672Zm5.184-20.976c6.384 1.776 16.752 5.568 21.456 7.872l-2.688 6.672c-5.472-2.832-13.536-5.904-18.768-7.632v-6.912Zm49.584-12c-.288 1.248-.576 2.784-.816 3.984-.48 2.16-1.056 5.136-1.584 7.584-1.584 6.768-5.424 20.448-10.464 28.56l-6.288-2.496c5.712-7.68 9.312-20.352 10.656-26.4.912-4.32 1.44-8.4 1.392-12l7.104.768Zm16.56 4.8c2.928 4.176 6.96 13.104 8.448 17.664l-6.096 2.832c-1.248-5.328-4.656-13.776-8.112-18.048l5.76-2.448Zm-36 5.04c1.728.096 3.36.048 5.136 0 3.84-.096 12.96-1.152 16.512-1.152 5.088 0 8.688 2.256 8.688 9.216 0 5.664-.72 13.44-2.736 17.568-1.584 3.36-4.272 4.416-7.872 4.416-1.872 0-4.128-.288-5.76-.672l-1.056-6.336c1.872.528 4.608 1.008 5.856 1.008 1.632 0 2.88-.48 3.6-2.064 1.344-2.688 1.968-8.544 1.968-13.248 0-3.84-1.632-4.416-4.656-4.416-2.832 0-11.136 1.056-13.776 1.392-1.392.192-3.888.528-5.328.768l-.576-6.48Zm35.136-11.664c1.2 1.728 2.88 4.8 3.792 6.576l-3.84 1.632c-1.008-1.968-2.496-4.8-3.792-6.672l3.84-1.536Zm5.664-2.208c1.248 1.824 3.024 4.896 3.888 6.576l-3.84 1.632c-.96-2.016-2.544-4.8-3.84-6.624l3.792-1.584Zm39.504 12.192c0 1.68 1.392 3.072 3.072 3.072 1.68 0 3.024-1.392 3.024-3.072a3.011 3.011 0 0 0-3.024-3.024c-1.68 0-3.072 1.344-3.072 3.024Zm-3.168 0a6.228 6.228 0 0 1 6.24-6.24 6.228 6.228 0 0 1 6.24 6.24 6.228 6.228 0 0 1-6.24 6.24 6.228 6.228 0 0 1-6.24-6.24Zm-29.808 15.744c1.392-1.2 2.448-2.208 3.936-3.696 2.16-2.16 5.904-6.864 9.216-10.8 2.88-3.408 5.712-3.936 9.408-.432 3.264 3.072 6.912 6.864 9.792 9.984 3.216 3.456 8.16 8.736 11.856 12.672l-5.328 5.712c-3.216-3.984-7.248-8.976-10.08-12.288-2.832-3.312-7.056-7.968-8.784-9.744-1.584-1.536-2.592-1.44-3.936.288-1.92 2.448-5.28 7.152-7.248 9.792-1.104 1.488-2.208 3.216-3.072 4.464l-5.76-5.952Zm50.688-8.592c1.776.144 5.232.336 7.728.336h25.776c2.256 0 4.368-.24 5.664-.336v7.584c-1.152-.048-3.6-.288-5.616-.288h-25.824c-2.688 0-5.904.144-7.728.288v-7.584Zm81.225-10.272c-.384.528-1.248 1.968-1.68 2.976-1.968 4.56-5.52 11.088-9.648 15.888-5.376 6.192-12.624 12.144-20.064 15.648l-4.992-5.184c7.776-2.88 15.168-8.736 19.68-13.728 3.168-3.6 6.096-8.352 7.2-11.76h-16.32c-1.968 0-4.608.24-5.664.336v-6.864c1.296.192 4.272.336 5.664.336h16.944c2.112 0 3.984-.24 4.992-.576l3.888 2.928Zm-10.704 14.88c4.944 4.032 11.76 11.184 14.88 15.024l-5.472 4.752c-3.552-4.944-8.784-10.656-13.92-15.312l4.512-4.464Zm33.744 13.056v-27.6c0-1.728-.144-4.08-.48-5.808h7.488c-.192 1.728-.432 3.792-.432 5.808 0 5.28.048 24.048.048 27.6 0 1.344.192 4.704.432 6.672H830.7c.336-1.872.48-4.8.48-6.672Zm5.184-20.976c6.384 1.776 16.752 5.568 21.456 7.872l-2.688 6.672c-5.472-2.832-13.536-5.904-18.768-7.632v-6.912Zm52.08-8.496a96.9 96.9 0 0 0-1.488-4.416l6.48-.768c.72 3.696 1.872 7.488 3.024 10.56 1.488 4.032 3.744 8.16 5.328 10.368.816 1.2 1.68 2.208 2.544 3.216l-2.928 4.272c-2.688-.528-8.784-1.152-12.816-1.488l.48-5.088c2.352.24 5.52.48 7.008.624-1.728-2.832-3.84-6.864-5.328-10.848-1.056-2.64-1.728-4.848-2.304-6.432Zm-17.472 2.256c8.976 1.056 16.272 1.008 22.032.384 4.272-.528 8.496-1.344 12.288-2.496l.72 6c-3.168.912-7.296 1.632-11.136 2.064-6.384.768-13.968.96-23.808.144l-.096-6.096Zm9.648 16.32c-1.584 2.304-2.352 4.416-2.352 6.48 0 4.08 3.6 5.76 10.176 5.808 5.232 0 9.456-.528 12.816-1.2l-.336 6.096c-2.736.48-7.056 1.104-12.864 1.104-9.84 0-15.984-3.792-15.984-10.752 0-2.928.912-5.664 2.544-8.928l6 1.392Zm78.336 12.96c-2.256 2.064-5.136 3.6-9.072 3.6-3.6 0-6-2.592-6-7.248 0-5.232 1.728-12.24 1.728-16.656 0-2.352-1.2-3.504-3.264-3.504-4.464 0-11.616 7.056-15.456 11.952l-.048-7.392c2.928-3.072 10.944-10.272 17.28-10.272 5.184 0 7.536 3.072 7.536 7.104 0 4.944-1.584 12-1.584 16.992 0 1.248.672 2.112 1.872 2.112 1.776 0 4.032-1.248 6.192-3.408l.816 6.72Zm-33.168-22.848c-2.16.24-6.72.816-9.888 1.296l-.624-6.192a41.48 41.48 0 0 0 4.176-.048c3.024-.144 9.168-1.056 11.328-1.776l1.92 2.496c-.816 1.104-2.304 3.456-3.12 4.704l-2.784 9.024c-2.112 3.072-6.384 9.504-8.928 13.008l-3.744-5.28c3.024-3.744 8.784-11.328 11.184-15.12l.096-1.248.384-.864Zm-.576-9.264c0-1.344.048-2.784-.24-4.272l7.008.192c-.816 3.84-2.4 16.416-2.4 25.008 0 3.888 0 7.968.288 12.432.048.864.24 2.64.336 3.696h-6.576a50.93 50.93 0 0 0 .144-3.552c.048-4.656.096-7.872.24-13.872.144-4.272 1.2-17.712 1.2-19.632Zm-748.556 67.824c-.144.96-.288 2.16-.336 3.408-.096 2.448-.144 9.264-.144 13.296 0 5.28.768 13.968.768 17.76 0 4.128-3.12 7.296-9.408 7.296-7.68 0-11.712-2.928-11.712-8.016 0-4.848 4.464-8.256 11.808-8.256 10.56 0 18.432 5.184 22.416 8.544l-3.456 5.376c-4.56-4.32-11.52-8.976-19.728-8.976-3.36 0-5.232 1.296-5.232 2.976 0 1.824 1.68 2.928 4.992 2.928 2.544 0 4.272-.72 4.272-3.504 0-2.88-.528-11.472-.528-16.128 0-4.608.048-10.704.048-13.44 0-.864-.096-2.352-.288-3.264h6.528Zm-19.92 4.464c3.408.576 8.928 1.056 11.856 1.056 6.528 0 12.816-.336 19.824-1.44l-.048 5.472c-4.896.672-12.528 1.248-19.728 1.248-3.072 0-8.64-.432-11.808-.816l-.096-5.52Zm-.288 10.368c3.168.576 9.024.912 11.568.912 8.88 0 15.072-.576 20.976-1.344l-.048 5.664c-6.624.768-11.856 1.056-20.976 1.056-2.832 0-8.256-.24-11.424-.624l-.096-5.664Zm57.36-14.112a76.574 76.574 0 0 0-.624 6.432c-.24 5.184-.576 15.888-.576 21.84 0 4.848 2.88 6.432 6.624 6.432 7.92 0 12.912-4.56 16.416-9.792l4.368 5.328c-3.12 4.608-9.936 10.992-20.88 10.992-7.872 0-12.912-3.456-12.912-11.664 0-6.432.432-19.008.432-23.136 0-2.304-.192-4.608-.576-6.48l7.728.048Zm52.896-.24c-.336 1.344-.768 3.504-1.008 4.56-.672 3.264-1.872 9.12-3.168 14.016-1.728 6.72-4.944 16.512-7.584 22.224l-6.672-2.256c2.832-4.848 6.48-14.88 8.304-21.6 1.2-4.512 2.304-9.792 2.64-12.624.24-1.776.288-3.744.144-4.896l7.344.576Zm-12.24 7.2c5.856 0 12.624-.912 18.864-2.4v6c-5.952 1.392-13.488 2.208-18.912 2.208-2.352 0-4.128-.096-5.808-.192l-.192-6c2.496.288 4.08.384 6.048.384Zm15.072 7.344a92.492 92.492 0 0 1 9.264-.48c2.736 0 5.616.144 8.4.432l-.096 5.76c-2.448-.288-5.376-.624-8.256-.624-3.312 0-6.288.144-9.312.528v-5.616Zm2.592 12.048c-.336 1.392-.624 2.928-.624 3.984 0 2.112 1.392 3.696 6.576 3.696 3.216 0 6.528-.336 9.936-.96l-.24 6.096a68.354 68.354 0 0 1-9.744.672c-8.112 0-12.432-2.736-12.432-7.584 0-2.256.432-4.56.816-6.432l5.712.528Zm29.136-.144c4.32 0 7.776 3.456 7.776 7.728a7.744 7.744 0 0 1-7.776 7.776c-4.272 0-7.776-3.456-7.776-7.776 0-4.272 3.504-7.728 7.776-7.728Zm0 12.048c2.4 0 4.32-1.92 4.32-4.32 0-2.352-1.92-4.272-4.32-4.272-2.352 0-4.32 1.92-4.32 4.272 0 2.4 1.968 4.32 4.32 4.32Z"/><path stroke="#666" stroke-width="7" d="M94.5 98H54m0 0 19.5-20M54 98l19.5 21"/><path fill="#4C4C4C" d="M506.02 94.46h22.68v6.36h-22.68v-6.36Zm-12.84 27.42h28.2v6.36h-28.2v-6.36Zm9.42-33.06h7.32v22.26h-7.32V88.82Zm-13.2 18.54h35.82v22.98h-7.38v-16.62h-21.42v16.68h-7.02v-23.04Zm10.74-33.3h7.5v10.92h-7.5V74.06Zm-18 7.02h47.4v6.84h-47.4v-6.84Zm-3.54 0h7.2v15.18c0 9.72-.9 24.6-6.36 34.02-1.32-1.2-4.5-3.3-6.24-4.02 5.04-8.64 5.4-21.3 5.4-30V81.08Zm80.58.9h30.42v6.18h-30.42v-6.18Zm3.78 20.04H586v5.76h-23.04v-5.76Zm0 9.66H586v5.82h-23.04v-5.82ZM571.12 74h6.42v55.86h-6.42V74Zm11.34 18.12h6.24v31.44c0 2.7-.36 4.44-1.98 5.46-1.68 1.08-3.72 1.2-6.6 1.2-.18-1.74-.96-4.44-1.8-6.12 1.44.06 2.94.06 3.42.06s.72-.18.72-.78V92.12Zm-22.2 0h25.68v6.06h-19.5v32.04h-6.18v-38.1Zm18.06-14.88 4.14-3.18c2.34 1.44 5.28 3.66 6.72 5.28l-4.38 3.6c-1.32-1.68-4.2-4.08-6.48-5.7Zm-41.58 32.94h21v18.96h-6.48V116h-8.28v14.34h-6.24v-20.16Zm7.2-23.22h6.54v16.86h-6.54V86.96ZM537.16 92h20.22v5.52h-20.22V92Zm-1.98 9.6h23.52v5.82h-23.52v-5.82Zm3.9 19.74h15.72v5.82h-15.72v-5.82Zm4.02-47.28h3.96v1.32h2.1v1.98c-2.4 4.38-6.06 10.38-11.82 15.66-1.02-1.5-3.18-3.84-4.56-4.8 4.92-4.14 8.4-9.66 10.32-14.16Zm1.32 0h4.86c3.6 3.12 8.1 7.62 10.26 10.86l-4.44 5.46c-1.92-3.18-6.12-8.52-9.54-11.4h-1.14v-4.92Zm70.44 47.46h26.88v6.54h-26.88v-6.54Zm-3-41.58h21.24v6.36h-21.24v-6.36Zm1.56-6.24 8.1 1.62c-5.1 8.76-12.3 16.8-23.1 23.28-1.02-1.8-3.42-4.44-5.04-5.7 9.9-5.22 16.56-12.54 20.04-19.2Zm17.4 6.24h1.38l1.2-.36 4.98 2.64c-7.02 18.66-23.04 30.9-40.92 36.9-.9-1.98-2.7-4.92-4.2-6.42 16.56-4.8 32.04-16.44 37.56-31.56v-1.2ZM604 93.14l5.34-4.68c4.14 2.94 9.6 7.2 12.24 10.32l-5.82 5.22c-2.28-3.12-7.62-7.74-11.76-10.86Zm34.38 10.08h7.5v27.24h-7.5v-27.24Zm-20.46 0h24.06v6.54h-24.06v20.58h-7.2v-21.78l5.46-5.34h1.74Z"/><circle cx="151.5" cy="289.5" r="73.5" fill="#D9D9D9"/><path fill="#3C4043" d="M284.312 240.212c-.282.893-.47 1.739-.658 2.491-.893 4.371-1.692 11.139-1.692 16.967 0 7.426 1.363 12.69 2.914 17.437l-5.405 1.598c-1.41-4.23-2.773-11.186-2.773-18.095 0-6.157.846-13.066 1.363-17.719.094-.94.188-2.021.141-2.867l6.11.188Zm-8.413 5.17c8.93 0 16.027-.423 23.218-2.162l.047 5.405c-6.439 1.175-16.309 1.88-23.406 1.88-2.491 0-6.157-.235-8.366-.329l-.141-5.405c1.692.235 5.781.611 8.648.611Zm20.304 6.909c-.376.846-1.081 3.008-1.41 3.995-2.679 8.46-7.52 14.805-11.985 18.095-3.055 2.256-7.144 4.324-11.233 4.324-3.431 0-6.298-2.068-6.298-6.862 0-6.627 5.922-13.536 13.395-16.262 3.102-1.128 6.956-1.833 10.481-1.833 8.789 0 15.275 5.076 15.275 12.408 0 6.674-3.948 13.113-15.463 14.899l-3.149-4.982c9.071-.987 12.784-5.546 12.784-10.199 0-3.995-3.431-7.379-9.776-7.379-4.277 0-7.661 1.222-9.964 2.256-4.7 2.209-8.037 6.721-8.037 9.87 0 1.551.611 2.35 2.162 2.35 2.209 0 5.358-1.551 8.225-4.23 3.431-3.149 6.627-7.332 8.507-13.818.329-.987.658-3.008.705-4.042l5.781 1.41Zm15.651-5.076c2.021.235 4.559.329 6.251.329 5.828 0 12.173-.987 16.732-2.444l.141 5.452c-4.042 1.128-10.81 2.35-16.826 2.303-1.88 0-3.854-.047-5.875-.141l-.423-5.499Zm18.283-7.05c-.611 2.491-1.739 7.097-3.008 11.092-2.162 6.768-6.392 15.51-10.387 21.056l-5.687-2.914c4.23-5.17 8.46-13.395 10.293-18.471 1.128-3.384 2.162-7.755 2.303-11.374l6.486.611Zm11.045 14.664c-.141 1.974-.094 3.948-.047 6.016.094 2.773.517 9.776.517 12.408 0 4.371-2.35 7.802-9.071 7.802-5.828 0-10.434-2.632-10.434-7.802 0-4.559 3.854-8.131 10.387-8.131 8.225 0 14.711 4.136 18.612 7.661l-3.102 5.076c-3.384-3.149-8.742-7.99-15.839-7.99-2.726 0-4.512 1.175-4.512 2.82 0 1.739 1.504 2.961 4.089 2.961 3.196 0 4.23-1.786 4.23-4.418 0-2.82-.517-11.468-.752-16.403h5.922Zm8.084 2.491c-2.726-2.209-8.084-5.264-11.327-6.721l3.055-4.606c3.384 1.457 9.165 4.606 11.609 6.345l-3.337 4.982Zm27.965-16.826c-.329 1.316-.752 3.431-.987 4.465-.658 3.196-1.833 8.93-3.102 13.724-1.692 6.58-4.841 16.168-7.426 21.761l-6.533-2.209c2.773-4.747 6.345-14.57 8.131-21.15 1.175-4.418 2.256-9.588 2.585-12.361.235-1.739.282-3.666.141-4.794l7.191.564Zm-11.985 7.05c5.734 0 12.361-.893 18.471-2.35v5.875c-5.828 1.363-13.207 2.162-18.518 2.162-2.303 0-4.042-.094-5.687-.188l-.188-5.875c2.444.282 3.995.376 5.922.376Zm14.758 7.191a90.565 90.565 0 0 1 9.071-.47c2.679 0 5.499.141 8.225.423l-.094 5.64c-2.397-.282-5.264-.611-8.084-.611-3.243 0-6.157.141-9.118.517v-5.499Zm2.538 11.797c-.329 1.363-.611 2.867-.611 3.901 0 2.068 1.363 3.619 6.439 3.619 3.149 0 6.392-.329 9.729-.94l-.235 5.969a66.93 66.93 0 0 1-9.541.658c-7.943 0-12.173-2.679-12.173-7.426 0-2.209.423-4.465.799-6.298l5.593.517Zm47.235-20.727c-.658 4.794-1.598 10.293-3.243 15.839-2.82 9.494-6.862 15.322-11.985 15.322-5.264 0-9.588-5.781-9.588-13.724 0-10.81 9.447-20.116 21.62-20.116 11.609 0 18.988 8.084 18.988 18.377 0 9.87-6.063 16.873-17.907 18.706l-3.572-5.546c1.833-.235 3.149-.47 4.418-.752 5.969-1.457 10.669-5.734 10.669-12.643 0-7.379-4.606-12.643-12.737-12.643-9.964 0-15.416 8.131-15.416 14.053 0 4.747 1.88 7.05 3.666 7.05 2.021 0 3.807-3.008 5.781-9.353 1.363-4.418 2.397-9.823 2.867-14.758l6.439.188Zm57.105 1.692c-.235.658-.47 1.786-.517 2.162-.611 4.747-2.679 17.484-3.337 21.761h-6.909c.752-4.23 2.773-16.309 2.914-19.693h-16.215c-1.927 0-3.666.094-5.358.235v-6.627c1.551.188 3.713.329 5.311.329h14.805c1.222 0 3.572-.235 4.371-.611l4.935 2.444Zm-34.545 21.996c1.504.282 3.196.376 4.653.376h31.302c1.692 0 3.196-.188 4.418-.376v6.862c-1.316-.188-3.29-.282-4.418-.282H456.99c-1.457 0-3.102.094-4.653.282v-6.862Zm47.94-13.254c1.739.141 5.123.329 7.567.329h25.239c2.209 0 4.277-.235 5.546-.329v7.426c-1.128-.047-3.525-.282-5.499-.282h-25.286c-2.632 0-5.781.141-7.567.282v-7.426Zm80.204-14.758c.893 1.833 1.927 4.559 2.444 6.392l-3.243 1.081c-.658-2.021-1.457-4.559-2.397-6.486l3.196-.987Zm4.841-1.504c.893 1.833 1.974 4.606 2.538 6.392l-3.196 1.034c-.705-2.068-1.598-4.559-2.538-6.439l3.196-.987Zm-8.883 18.001c0 11.609-2.82 18.753-14.147 23.735l-5.076-4.747c9.118-3.149 13.066-7.238 13.066-18.753v-12.502c0-1.927-.094-3.478-.235-4.371h6.674c-.094.94-.282 2.444-.282 4.371v12.267Zm-17.014-16.215c-.094.846-.282 2.35-.282 4.23v16.826c0 2.068.141 3.995.235 4.888h-6.58c.094-.893.235-2.773.235-4.888v-16.826c0-1.363-.094-2.82-.282-4.23h6.674Zm-15.463 8.46c.846.141 2.773.423 5.123.423h30.785c2.491 0 3.901-.094 5.217-.329v6.251c-1.034-.141-2.726-.141-5.17-.141h-30.832c-2.397 0-4.042.094-5.123.188v-6.392Zm49.397 6.016c1.739.141 5.123.329 7.567.329h25.239c2.209 0 4.277-.235 5.546-.329v7.426c-1.128-.047-3.525-.282-5.499-.282h-25.286c-2.632 0-5.781.141-7.567.282v-7.426Zm60.63 19.035h21.056v5.123h-21.056v-5.123Zm-2.35-32.571h16.638v4.982h-16.638v-4.982Zm1.222-4.888 6.345 1.269c-3.995 6.862-9.635 13.16-18.095 18.236-.799-1.41-2.679-3.478-3.948-4.465 7.755-4.089 12.972-9.823 15.698-15.04Zm13.63 4.888h1.081l.94-.282 3.901 2.068c-5.499 14.617-18.048 24.205-32.054 28.905-.705-1.551-2.115-3.854-3.29-5.029 12.972-3.76 25.098-12.878 29.422-24.722v-.94Zm-21.009 10.34 4.183-3.666c3.243 2.303 7.52 5.64 9.588 8.084l-4.559 4.089c-1.786-2.444-5.969-6.063-9.212-8.507Zm26.931 7.896h5.875v21.338h-5.875v-21.338Zm-16.027 0h18.847v5.123h-18.847v16.121h-5.64v-17.061l4.277-4.183h1.363Z"/><path fill="#70757A" d="M262.596 342.89h38.892v5.502h-38.892v-5.502Zm64.596-14.994h9.072v4.326h-9.072v-4.326Zm-3.57 16.254h14.406v4.452h-14.406v-4.452Zm10.416-16.254h4.536v9.282c0 .714-.042 1.134.084 1.26.084.168.252.21.42.21h.672c.21 0 .42-.042.546-.168.126-.084.252-.336.336-.882.042-.588.084-1.89.126-3.528.84.756 2.436 1.554 3.612 1.932-.084 1.68-.252 3.57-.588 4.326-.294.798-.756 1.386-1.428 1.68-.588.336-1.554.504-2.268.504h-2.226c-1.008 0-2.142-.336-2.814-1.05-.714-.714-1.008-1.596-1.008-4.242v-9.324Zm3.192 16.254h.882l.84-.126 3.15 1.008c-2.52 11.256-8.988 17.556-18.06 20.79-.546-1.26-1.764-3.192-2.688-4.2 7.98-2.31 13.944-8.106 15.876-16.716v-.756Zm-8.316 4.368c2.394 6.552 7.434 11.256 15.414 13.062-1.008.966-2.352 2.898-3.024 4.158-8.568-2.436-13.566-8.022-16.464-16.296l4.074-.924Zm-3.738-20.622h4.41v5.586c0 3.57-.672 8.022-4.158 10.752-.714-.798-2.604-2.31-3.612-2.856 3.024-2.31 3.36-5.376 3.36-8.022v-5.46Zm-12.894 21.252h2.898v9.618h-2.898v-9.618Zm-3.318-17.094h8.946v3.906h-8.946v-3.906Zm7.896 0h4.074v29.232c0 1.89-.294 3.066-1.47 3.78-1.218.63-2.814.756-5.166.756-.126-1.134-.714-2.94-1.218-3.99 1.344.042 2.73.042 3.192.042.462 0 .588-.168.588-.63v-29.19Zm-9.912 0h3.948v15.372c0 5.67-.462 13.482-3.486 18.312-.714-.672-2.478-1.764-3.444-2.184 2.772-4.494 2.982-11.004 2.982-16.128v-15.372Zm-2.94 13.23c4.746-.378 11.97-1.092 18.732-1.806l.084 3.822c-6.51.714-13.398 1.47-18.312 2.016l-.504-4.032Zm7.308-7.224 2.94-1.176c1.008 1.596 1.848 3.78 2.1 5.25l-3.15 1.302c-.21-1.47-.966-3.696-1.89-5.376Zm.63-11.76 5.376.882c-.924 2.436-1.932 4.956-2.646 6.594l-4.116-.924c.546-1.89 1.134-4.62 1.386-6.552Zm49.854 15.372 6.048 1.47c-2.772 6.594-6.51 13.986-9.618 18.816l-4.662-1.47c3.024-5.082 6.426-12.81 8.232-18.816Zm-13.104 17.262c7.938-.252 20.244-.84 31.248-1.386l-.126 4.914c-10.794.756-22.47 1.386-30.45 1.806l-.672-5.334Zm21.252-7.98 4.914-2.268c3.696 4.536 7.644 10.5 9.66 14.532l-5.208 2.772c-1.764-4.032-5.838-10.416-9.366-15.036Zm-12.6-23.646 5.754 1.596c-2.688 6.636-7.098 13.146-11.382 17.178-1.092-1.05-3.528-2.898-4.914-3.738 4.368-3.444 8.358-9.198 10.542-15.036Zm16.926.042c2.478 4.956 7.266 10.836 11.13 14.364-1.386 1.05-3.318 3.066-4.284 4.41-3.948-4.242-8.778-10.878-11.886-16.716l5.04-2.058Zm23.52 17.682h20.37v3.99h-20.37v-3.99Zm-.63 7.182h21.672v4.116h-21.672v-4.116Zm12.6-5.922h4.41v18.732h-4.41v-18.732Zm-8.19.168h4.284v8.064c0 2.688-1.134 8.232-5.544 11.256-.672-.882-2.184-2.226-3.234-2.898 3.57-2.184 4.494-6.258 4.494-8.4v-8.022Zm-8.778-12.768h10.584v3.276h-10.584v-3.276Zm19.488 0h10.626v3.276h-10.626v-3.276Zm8.652-5.754h4.956v32.004c0 2.52-.462 3.948-1.974 4.788-1.554.84-3.738.966-6.972.924-.126-1.344-.798-3.696-1.47-4.998 1.848.084 3.948.084 4.578.084.672 0 .882-.252.882-.882v-31.92Zm-27.678 0h13.314v14.952h-13.314v-3.612h8.568v-7.728h-8.568v-3.612Zm30.24 0v3.612h-9.408v7.812h9.408v3.612h-14.196v-15.036h14.196Zm-33.222 0h4.956v37.842h-4.956v-37.842Zm41.622 5.292c1.638-.042 3.318-.126 4.116-.21 3.486-.336 10.416-.924 18.102-1.596 4.368-.336 8.946-.63 11.928-.756l.042 5.418c-2.268 0-5.88.042-8.148.546-5.04 1.344-8.862 6.804-8.862 11.802 0 6.888 6.468 9.408 13.566 9.744l-1.974 5.754c-8.778-.546-17.094-5.292-17.094-14.406 0-6.006 3.402-10.794 6.216-12.936-3.906.42-12.516 1.344-17.346 2.394l-.546-5.754Zm28.182 6.972c1.008 1.47 2.52 4.032 3.318 5.712l-3.15 1.386c-1.092-2.268-1.974-3.948-3.276-5.796l3.108-1.302Zm4.662-1.932c1.092 1.47 2.688 3.948 3.57 5.586l-3.15 1.512c-1.134-2.268-2.1-3.864-3.444-5.712l3.024-1.386Zm25.788-10.374h4.704v4.41c0 4.074-1.092 8.988-6.09 12.054-.588-.966-2.394-2.982-3.318-3.654 4.158-2.436 4.704-5.712 4.704-8.526v-4.284Zm2.352 0h10.164v4.662h-10.164v-4.662Zm7.77 0h4.788v9.156c0 1.134.126 1.26.63 1.26h1.218c.588 0 .714-.588.798-4.242.924.756 2.898 1.47 4.158 1.806-.42 5.166-1.554 6.594-4.41 6.594h-2.688c-3.486 0-4.494-1.218-4.494-5.376v-9.198Zm-12.39 16.464h17.472v4.536h-17.472v-4.536Zm15.918 0h.966l.924-.168 3.276 1.26c-3.234 11.718-11.382 17.598-22.302 20.37-.504-1.344-1.68-3.486-2.604-4.578 9.828-1.932 17.262-7.182 19.74-16.128v-.756Zm-10.332 4.242c3.066 6.384 9.45 10.836 18.438 12.6-1.092 1.05-2.562 3.192-3.276 4.536-9.576-2.268-15.876-7.644-19.698-15.75l4.536-1.386Zm-21.966-.672c3.57-.714 9.114-2.1 14.448-3.402l.546 4.368c-4.704 1.512-9.618 3.108-13.566 4.284l-1.428-5.25Zm.672-13.776h14.49v4.662h-14.49v-4.662Zm5.334-7.812h4.956v34.02c0 2.436-.462 3.696-1.89 4.452-1.386.756-3.402.924-6.384.882-.168-1.26-.798-3.318-1.386-4.578 1.596.042 3.36.042 3.906.042.546-.042.798-.21.798-.798v-34.02Zm60.984 0h4.872v6.006h-4.872v-6.006Zm-9.366 4.032h23.352v3.906h-23.352v-3.906Zm7.476 8.862v2.52h8.778v-2.52h-8.778Zm-4.242-3.402h17.514v9.324H532.74v-9.324Zm-2.94 10.836h20.244v3.906h-15.75v15.246H529.8V346.67Zm18.522 0h4.578v14.784c0 1.89-.336 2.982-1.512 3.654-1.218.63-2.814.672-4.998.672-.126-1.176-.672-2.814-1.176-3.906a71.04 71.04 0 0 0 2.604.042c.378-.042.504-.126.504-.546v-14.7Zm-12.264 5.586h3.444v10.962h-3.444v-10.962Zm2.604 0h7.812v8.988h-7.812v-3.024h4.326v-2.898h-4.326v-3.066Zm-18.606-22.05h4.83v35.574h-4.83v-35.574Zm-5.544 8.022h14.952v4.62h-14.952v-4.62Zm5.88 1.848 2.94 1.26c-1.428 5.922-4.116 13.524-7.14 17.682-.42-1.428-1.554-3.57-2.31-4.83 2.646-3.402 5.334-9.534 6.51-14.112Zm6.132-13.146 3.528 3.78c-4.158 1.554-9.66 2.562-14.364 3.108-.21-1.05-.84-2.772-1.386-3.822 4.368-.672 9.24-1.764 12.222-3.066Zm-1.806 16.338c1.05.924 4.536 4.914 5.292 5.964l-2.898 3.906c-.924-2.142-3.36-6.09-4.578-7.938l2.184-1.932Zm45.864-14.574a67.003 67.003 0 0 0-.546 5.628c-.21 4.536-.504 13.902-.504 19.11 0 4.242 2.52 5.628 5.796 5.628 6.93 0 11.298-3.99 14.364-8.568l3.822 4.662c-2.73 4.032-8.694 9.618-18.27 9.618-6.888 0-11.298-3.024-11.298-10.206 0-5.628.378-16.632.378-20.244 0-2.016-.168-4.032-.504-5.67l6.762.042Zm51.492-.63c-.126.84-.252 1.89-.294 2.982-.084 2.142-.126 8.106-.126 11.634 0 4.62.672 12.222.672 15.54 0 3.612-2.73 6.384-8.232 6.384-6.72 0-10.248-2.562-10.248-7.014 0-4.242 3.906-7.224 10.332-7.224 9.24 0 16.128 4.536 19.614 7.476l-3.024 4.704c-3.99-3.78-10.08-7.854-17.262-7.854-2.94 0-4.578 1.134-4.578 2.604 0 1.596 1.47 2.562 4.368 2.562 2.226 0 3.738-.63 3.738-3.066 0-2.52-.462-10.038-.462-14.112 0-4.032.042-9.366.042-11.76 0-.756-.084-2.058-.252-2.856h5.712Zm-17.43 3.906c2.982.504 7.812.924 10.374.924 5.712 0 11.214-.294 17.346-1.26l-.042 4.788c-4.284.588-10.962 1.092-17.262 1.092-2.688 0-7.56-.378-10.332-.714l-.084-4.83Zm-.252 9.072c2.772.504 7.896.798 10.122.798 7.77 0 13.188-.504 18.354-1.176l-.042 4.956c-5.796.672-10.374.924-18.354.924-2.478 0-7.224-.21-9.996-.546l-.084-4.956Zm62.034-12.894c-.126.714-.252 2.94-.294 3.612-.126 2.772-.042 11.34 0 14.7l-5.25-1.764c0-2.604 0-10.668-.168-12.894-.126-1.68-.294-3.108-.378-3.654h6.09Zm-23.772 5.25c6.258 0 17.346-.336 22.596-.336 4.284 0 10.668-.042 13.02 0l-.084 4.956c-2.604-.126-6.888-.252-13.062-.252-7.644 0-16.002.336-22.344.672l-.126-5.04Zm22.764 12.432c0 6.846-2.52 10.248-7.35 10.248-3.234 0-7.266-2.562-7.266-7.686 0-4.746 3.864-7.854 8.4-7.854 5.544 0 8.442 4.074 8.442 9.282 0 5.502-3.234 12.432-13.482 15.33l-4.452-4.452c7.14-1.554 12.726-4.368 12.726-11.718 0-2.73-1.47-4.032-3.318-4.032-1.638 0-3.276 1.134-3.276 3.36 0 1.89 1.554 3.108 3.276 3.108 1.974 0 3.696-1.68 2.352-6.678l3.948 1.092Z"/><circle cx="733" cy="350" r="26.5" stroke="#70757A" stroke-width="5"/><path fill="#70757A" d="M729.774 365v-22.909h5.399V365h-5.399Zm2.715-26.161c-.855 0-1.591-.283-2.208-.85-.616-.576-.924-1.267-.924-2.073 0-.815.308-1.506.924-2.073a3.12 3.12 0 0 1 2.208-.865c.865 0 1.6.288 2.207.865.617.567.925 1.258.925 2.073 0 .806-.308 1.497-.925 2.073-.607.567-1.342.85-2.207.85Z"/><rect width="927" height="306" x="98.5" y="635.5" stroke="#80868B" stroke-width="3" rx="10.5"/><path stroke="#B9B9B9" stroke-linejoin="round" stroke-width="6" d="M266.5 491.5H238l23.5 17L253 536l22.5-17.5L299 536l-8.5-27.5 23-17h-28l-10-28.5-9 28.5ZM410.5 491.5H382l23.5 17L397 536l22.5-17.5L443 536l-8.5-27.5 23-17h-28l-10-28.5-9 28.5ZM554.5 491.5H526l23.5 17L541 536l22.5-17.5L587 536l-8.5-27.5 23-17h-28l-10-28.5-9 28.5ZM698.5 491.5H670l23.5 17L685 536l22.5-17.5L731 536l-8.5-27.5 23-17h-28l-10-28.5-9 28.5ZM842.5 491.5H814l23.5 17L829 536l22.5-17.5L875 536l-8.5-27.5 23-17h-28l-10-28.5-9 28.5Z"/><rect width="740" height="104" x="193.5" y="1045.5" stroke="#DDDFE2" stroke-width="3" rx="49.5"/><path stroke="#1A73E8" stroke-linejoin="round" stroke-width="6" d="M453 1079.5h24M465 1091.5v-24"/><path fill="#1A73E8" d="M443.568 1078.8a2.998 2.998 0 1 0-2.136-5.6l2.136 5.6ZM417.5 1121h-3c0 1.66 1.343 3 3 3v-3Zm53 0v3c1.657 0 3-1.34 3-3h-3Zm-53-41v-3c-1.657 0-3 1.34-3 3h3Zm18-6.5v-3c-1.104 0-2.118.61-2.641 1.58l2.641 1.42Zm9.5 0h3c0-1.66-1.343-3-3-3v3Zm0 6.5v3c1.657 0 3-1.34 3-3h-3Zm-27.5 44h53v-6h-53v6Zm56-3v-22h-6v22h6Zm-59-41v41h6v-41h-6Zm18.359-7.92-3.5 6.5 5.282 2.84 3.5-6.5-5.282-2.84ZM432 1077h-14.5v6H432v-6Zm13-6.5h-9.5v6h9.5v-6Zm-3.568 2.7-10.5 4 2.136 5.6 10.5-4-2.136-5.6ZM432 1083h13v-6h-13v6Zm16-3v-6.5h-6v6.5h6Z"/><circle cx="444.5" cy="1100.5" r="12.5" fill="#1A73E8"/><path fill="#1A73E8" d="M493.795 1079.47h37.539v10.49h-5.418v-5.72h-27.004v5.72h-5.117v-10.49Zm11.309 8.47h18.662v4.43h-18.662v-4.43Zm-1.075 8.09h16.77v4.51h-16.77v-4.51Zm-10.922 7.91h38.872v4.73h-38.872v-4.73Zm26.316-7.91h5.16s-.086 1.46-.172 2.15c-.903 11.22-1.935 15.91-3.741 17.71-1.247 1.34-2.537 1.77-4.472 1.94-1.591.13-4.343.13-7.095 0-.086-1.46-.817-3.53-1.763-4.86 2.838.26 5.762.26 6.923.26.946 0 1.505-.09 2.107-.52 1.333-1.12 2.279-5.81 3.01-15.91l.043-.77Zm-16.125-12 5.16.47c-.989 5.76-2.408 12.9-3.483 17.29l-5.246-.39c1.247-4.51 2.709-11.74 3.569-17.37Zm55.169 28.81 3.397-3.27c4.687 1.55 10.148 3.57 13.373 4.95l-4.386 3.39c-2.881-1.37-7.697-3.44-12.384-5.07Zm-22.145-7.1h38.399v4.26h-38.399v-4.26Zm1.247-25.15h36.249v4.3h-36.249v-4.3Zm15.093-3.14h5.461v10.88h-5.461v-10.88Zm-5.074 17.03v1.85h16.297v-1.85h-16.297Zm0 4.68v1.94h16.297v-1.94h-16.297Zm0-9.41v1.8h16.297v-1.8h-16.297Zm-4.988-3.06h26.531v17.42H542.6v-17.42Zm5.719 23.14 4.3 3.01c-3.397 2.02-8.772 4.08-13.029 5.12-.86-.99-2.408-2.58-3.526-3.53 4.343-.99 9.589-2.92 12.255-4.6Zm49.579-30.32c-.344 1.59-.903 4.13-2.107 7.23-.903 2.1-2.15 4.56-3.354 6.28 1.161-.52 3.44-.82 4.902-.82 3.569 0 6.278 2.11 6.278 6.1 0 2.33.129 7.01.172 9.72h-5.16c.172-2.02.258-5.67.215-8 0-2.75-1.72-3.65-3.526-3.65-2.365 0-5.074 1.42-6.708 2.97-1.29 1.29-2.494 2.83-3.956 4.73l-4.601-3.44c5.504-5.08 8.815-9.72 10.621-14.45.86-2.32 1.419-4.95 1.548-7.14l5.676.47Zm-16.211 4c2.193.3 5.375.48 7.568.48 5.676 0 13.459-.31 19.694-1.42l-.043 4.98c-6.063.86-14.706 1.25-19.952 1.25-1.763 0-4.902-.08-7.267-.3v-4.99Zm34.056 12.21c-1.333.39-3.655 1.25-5.117 1.81-2.795 1.08-6.665 2.62-10.707 4.69-3.913 2.02-6.02 3.87-6.02 6.23 0 2.37 2.064 3.01 6.235 3.01 3.655 0 8.471-.47 12.255-1.24l-.172 5.54c-2.881.39-8.127.78-12.212.78-6.708 0-11.739-1.68-11.739-7.23 0-5.97 6.149-9.5 11.309-12.08 3.956-2.06 6.665-3.1 9.245-4.3a94.303 94.303 0 0 0 4.816-2.24l2.107 5.03Zm16.168-1.46v15.83h-5.031v-11.05h-5.031v-4.78h10.062Zm0 13.59c1.72 2.84 4.988 4.09 9.46 4.26 5.031.21 14.792.08 20.597-.39-.559 1.2-1.419 3.7-1.634 5.25-5.203.26-13.889.34-19.049.13-5.289-.22-8.858-1.47-11.653-4.82a183.945 183.945 0 0 1-6.149 5.2l-2.537-5.37c1.935-1.21 4.257-2.71 6.235-4.26h4.73Zm-9.976-26.27 3.827-3.1c2.58 1.81 5.719 4.52 7.224 6.54l-4.128 3.39c-1.29-2.02-4.386-4.9-6.923-6.83Zm16.383.13h18.877v12.17h-18.877v-4.22h13.846v-3.74h-13.846v-4.21Zm5.633-4.3 6.106.77c-.989 2.37-2.021 4.56-2.795 6.11l-4.902-.91c.645-1.76 1.29-4.17 1.591-5.97Zm-8.127 4.3h5.031v27.9h-5.031v-27.9Zm2.924 15.05h20.124v12.85h-20.124v-4.25h15.05v-4.35h-15.05v-4.25Zm50.568 12.25h11.051v4.99h-11.051v-4.99Zm-24.209-23.82h15.781v5.07h-15.781v-5.07Zm21.93-2.8h15.652v34.28h-5.203v-29.29h-5.504v29.63h-4.945v-34.62Zm-7.439 2.8h4.988v2.36c-.387 18.41-.688 25.03-2.064 27.05-.989 1.42-1.892 1.94-3.311 2.2-1.29.3-3.225.3-5.203.21-.086-1.5-.645-3.74-1.505-5.2 1.72.17 3.268.17 4.085.17.645.04 1.032-.17 1.462-.78.903-1.29 1.247-7.48 1.548-24.85v-1.16Zm-9.374-7.1h5.074c-.043 16.95-.215 31.22-7.654 39.78-.817-1.25-2.537-2.97-3.827-3.78 6.708-7.57 6.364-20.26 6.407-36Z"/><rect width="924" height="112" x="100" y="1209" fill="#1A73E8" rx="50"/><path fill="#fff" d="M540.6 1247.52h4.48v4.2c0 3.88-1.04 8.56-5.8 11.48-.56-.92-2.28-2.84-3.16-3.48 3.96-2.32 4.48-5.44 4.48-8.12v-4.08Zm2.24 0h9.68v4.44h-9.68v-4.44Zm7.4 0h4.56v8.72c0 1.08.12 1.2.6 1.2h1.16c.56 0 .68-.56.76-4.04.88.72 2.76 1.4 3.96 1.72-.4 4.92-1.48 6.28-4.2 6.28h-2.56c-3.32 0-4.28-1.16-4.28-5.12v-8.76Zm-11.8 15.68h16.64v4.32h-16.64v-4.32Zm15.16 0h.92l.88-.16 3.12 1.2c-3.08 11.16-10.84 16.76-21.24 19.4-.48-1.28-1.6-3.32-2.48-4.36 9.36-1.84 16.44-6.84 18.8-15.36v-.72Zm-9.84 4.04c2.92 6.08 9 10.32 17.56 12-1.04 1-2.44 3.04-3.12 4.32-9.12-2.16-15.12-7.28-18.76-15l4.32-1.32Zm-20.92-.64c3.4-.68 8.68-2 13.76-3.24l.52 4.16c-4.48 1.44-9.16 2.96-12.92 4.08l-1.36-5Zm.64-13.12h13.8v4.44h-13.8v-4.44Zm5.08-7.44h4.72v32.4c0 2.32-.44 3.52-1.8 4.24-1.32.72-3.24.88-6.08.84-.16-1.2-.76-3.16-1.32-4.36 1.52.04 3.2.04 3.72.04.52-.04.76-.2.76-.76v-32.4Zm58.08 0h4.64v5.72h-4.64v-5.72Zm-8.92 3.84h22.24v3.72h-22.24v-3.72Zm7.12 8.44v2.4h8.36v-2.4h-8.36Zm-4.04-3.24h16.68v8.88H580.8v-8.88Zm-2.8 10.32h19.28v3.72h-15v14.52H578v-18.24Zm17.64 0H600v14.08c0 1.8-.32 2.84-1.44 3.48-1.16.6-2.68.64-4.76.64-.12-1.12-.64-2.68-1.12-3.72 1.04.04 2.12.04 2.48.04.36-.04.48-.12.48-.52v-14Zm-11.68 5.32h3.28v10.44h-3.28v-10.44Zm2.48 0h7.44v8.56h-7.44v-2.88h4.12v-2.76h-4.12v-2.92Zm-17.72-21h4.6v33.88h-4.6v-33.88Zm-5.28 7.64h14.24v4.4h-14.24v-4.4Zm5.6 1.76 2.8 1.2c-1.36 5.64-3.92 12.88-6.8 16.84-.4-1.36-1.48-3.4-2.2-4.6 2.52-3.24 5.08-9.08 6.2-13.44Zm5.84-12.52 3.36 3.6c-3.96 1.48-9.2 2.44-13.68 2.96-.2-1-.8-2.64-1.32-3.64 4.16-.64 8.8-1.68 11.64-2.92Zm-1.72 15.56c1 .88 4.32 4.68 5.04 5.68l-2.76 3.72c-.88-2.04-3.2-5.8-4.36-7.56l2.08-1.84Z"/><rect width="1007" height="355" x="62.5" y="609.5" stroke="#FF3CC8" stroke-opacity=".5" stroke-width="17" rx="41.5"/></svg>