<svg xmlns="http://www.w3.org/2000/svg" width="1125" height="1390" fill="none"><path fill="#fff" d="M0 0h1125v1390H0z"/><path stroke="#666" stroke-width="7" d="M94.5 98H54m0 0 19.5-20M54 98l19.5 21"/><text xml:space="preserve" fill="#4C4C4C" font-family="Inter" font-size="60" font-weight="bold" letter-spacing="0em" style="white-space:pre"><tspan x="472" y="125.318">店舗名</tspan></text><circle cx="151.5" cy="289.5" r="73.5" fill="#D9D9D9"/><text xml:space="preserve" fill="#3C4043" font-family="Inter" font-size="47" font-weight="600" letter-spacing="0em" style="white-space:pre"><tspan x="261" y="277.591">あなたのユーザー名</tspan></text><text xml:space="preserve" fill="#70757A" font-family="Inter" font-size="42" font-weight="600" letter-spacing="0em" style="white-space:pre"><tspan x="261" y="361.773">一般公開で投稿します</tspan></text><circle cx="733" cy="350" r="26.5" stroke="#70757A" stroke-width="5"/><text xml:space="preserve" fill="#70757A" font-family="Inter" font-size="42" font-weight="600" letter-spacing="0em" style="white-space:pre"><tspan x="727" y="364.773">i</tspan></text><rect width="927" height="306" x="98.5" y="635.5" stroke="#80868B" stroke-width="3" rx="10.5"/><path fill="#FABB05" stroke="#FABB05" stroke-linejoin="round" stroke-width="6" d="M266.5 491.5H238l23.5 17L253 536l22.5-17.5L299 536l-8.5-27.5 23-17h-28l-10-28.5-9 28.5ZM410.5 491.5H382l23.5 17L397 536l22.5-17.5L443 536l-8.5-27.5 23-17h-28l-10-28.5-9 28.5ZM554.5 491.5H526l23.5 17L541 536l22.5-17.5L587 536l-8.5-27.5 23-17h-28l-10-28.5-9 28.5ZM698.5 491.5H670l23.5 17L685 536l22.5-17.5L731 536l-8.5-27.5 23-17h-28l-10-28.5-9 28.5ZM842.5 491.5H814l23.5 17L829 536l22.5-17.5L875 536l-8.5-27.5 23-17h-28l-10-28.5-9 28.5Z"/><rect width="740" height="104" x="193.5" y="1045.5" stroke="#DDDFE2" stroke-width="3" rx="49.5"/><path stroke="#1A73E8" stroke-linejoin="round" stroke-width="6" d="M453 1079.5h24M465 1091.5v-24"/><path fill="#1A73E8" d="M443.568 1078.8a2.998 2.998 0 1 0-2.136-5.6l2.136 5.6ZM417.5 1121h-3c0 1.66 1.343 3 3 3v-3Zm53 0v3c1.657 0 3-1.34 3-3h-3Zm-53-41v-3c-1.657 0-3 1.34-3 3h3Zm18-6.5v-3c-1.104 0-2.118.61-2.641 1.58l2.641 1.42Zm9.5 0h3c0-1.66-1.343-3-3-3v3Zm0 6.5v3c1.657 0 3-1.34 3-3h-3Zm-27.5 44h53v-6h-53v6Zm56-3v-22h-6v22h6Zm-59-41v41h6v-41h-6Zm18.359-7.92-3.5 6.5 5.282 2.84 3.5-6.5-5.282-2.84ZM432 1077h-14.5v6H432v-6Zm13-6.5h-9.5v6h9.5v-6Zm-3.568 2.7-10.5 4 2.136 5.6 10.5-4-2.136-5.6ZM432 1083h13v-6h-13v6Zm16-3v-6.5h-6v6.5h6Z"/><circle cx="444.5" cy="1100.5" r="12.5" fill="#1A73E8"/><text xml:space="preserve" fill="#1A73E8" font-family="Inter" font-size="43" font-weight="600" letter-spacing="0em" style="white-space:pre"><tspan x="491" y="1113.64">写真を追加</tspan></text><rect width="924" height="112" x="100" y="1209" fill="#1A73E8" rx="50"/><text xml:space="preserve" fill="#fff" font-family="Inter" font-size="40" font-weight="bold" letter-spacing="0em" style="white-space:pre"><tspan x="522" y="1279.55">投稿</tspan></text><rect width="962" height="160" x="1044.5" y="1342.5" stroke="#FF3CC8" stroke-opacity=".5" stroke-width="17" rx="26.5" transform="rotate(180 1044.5 1342.5)"/></svg>